# Blender 3.6.5
# www.blender.org
mtllib spam.mtl
o Kostka
v -0.599504 0.998600 1.131583
v -0.601026 1.149985 0.976442
v -0.753457 0.996376 0.978470
v -0.620661 1.125766 -0.992537
v -0.621511 0.969899 -1.144557
v -0.772411 0.970476 -0.988451
v -0.599511 -0.969059 1.157112
v -0.753369 -0.970891 1.004067
v -0.600379 -1.124709 1.005624
v -0.620037 -0.999130 -1.117726
v -0.618511 -1.150506 -0.962125
v -0.772012 -0.996552 -0.963303
v 0.599149 0.998346 1.131824
v 0.753701 0.997173 0.979748
v 0.600281 1.151109 0.977292
v 0.638529 0.993103 -1.168448
v 0.637383 1.149126 -1.016206
v 0.792070 0.995686 -1.014090
v 0.599340 -0.969039 1.157186
v 0.600421 -1.124724 1.005703
v 0.753249 -0.971122 1.004554
v 0.624017 -0.999943 -1.118800
v 0.776836 -0.997625 -0.963846
v 0.622832 -1.150722 -0.961785
vn -0.0100 0.9999 -0.0067
vn 0.9999 -0.0037 0.0157
vn -0.0098 -0.0193 -0.9998
vn -1.0000 -0.0000 0.0096
vn -0.0001 -0.9999 0.0132
vn -0.5781 0.5812 0.5728
vn -0.5927 0.5640 -0.5750
vn -0.5770 -0.5680 0.5869
vn -0.5827 -0.5853 -0.5637
vn 0.5733 0.5806 0.5781
vn 0.5763 0.5729 -0.5828
vn 0.5755 -0.5682 0.5881
vn 0.5792 -0.5902 -0.5624
vn -0.7052 0.0092 0.7089
vn -0.7125 0.7016 -0.0019
vn -0.7159 -0.0096 -0.6981
vn -0.7086 -0.7055 0.0158
vn -0.0000 -0.6974 0.7167
vn -0.0005 -0.7190 -0.6950
vn 0.7069 -0.7071 0.0177
vn 0.7028 0.0090 0.7113
vn 0.7105 -0.0229 -0.7033
vn 0.7061 0.7080 0.0127
vn -0.0006 0.7134 0.7007
vn -0.0264 0.6980 -0.7156
vn -0.0001 0.0129 0.9999
vt 0.757739 0.377505
vt 0.771246 0.377386
vt 0.771243 0.434970
vt 0.757743 0.434851
vt 0.313954 0.031780
vt 0.719800 0.031504
vt 0.719921 0.960066
vt 0.313833 0.959791
vt 0.744608 0.044004
vt 0.983121 0.044244
vt 0.983253 0.973883
vt 0.744476 0.974122
vt 0.765500 0.512441
vt 0.746889 0.512441
vt 0.746889 0.745291
vt 0.765500 0.745291
vt 0.751521 0.417420
vt 0.770915 0.417251
vt 0.770915 0.528944
vt 0.751521 0.528775
vt 0.757247 0.434826
vt 0.757744 0.438423
vt 0.771735 0.435028
vt 0.771241 0.438423
vt 0.750807 0.417454
vt 0.751521 0.410469
vt 0.771629 0.417218
vt 0.770915 0.410470
vt 0.757247 0.377529
vt 0.757735 0.373969
vt 0.771729 0.377425
vt 0.771238 0.373995
vt 0.750807 0.528741
vt 0.751521 0.535726
vt 0.771629 0.529032
vt 0.770924 0.535726
vt 0.766185 0.745291
vt 0.766185 0.512441
vt 0.746204 0.512271
vt 0.746204 0.745291
vt 0.299047 0.959712
vt 0.299047 0.031861
vt 0.734708 0.031145
vt 0.734708 0.959177
vt 0.757732 0.373933
vt 0.771235 0.373933
vt 0.771738 0.377461
vt 0.771738 0.435062
vt 0.019459 0.031267
vt 0.279604 0.031267
vt 0.279604 0.969029
vt 0.019459 0.969029
s 0
usemtl Materiał
f 15/1/1 17/2/1 4/3/1 2/4/1
f 21/5/2 23/6/2 18/7/2 14/8/2
f 22/9/3 10/10/3 5/11/3 16/12/3
f 3/13/4 6/14/4 12/15/4 8/16/4
f 9/17/5 11/18/5 24/19/5 20/20/5
f 1/21/6 2/4/6 3/22/6
f 4/3/7 5/23/7 6/24/7
f 7/25/8 8/26/8 9/17/8
f 10/27/9 11/18/9 12/28/9
f 13/29/10 14/30/10 15/1/10
f 16/31/11 17/2/11 18/32/11
f 19/33/12 20/20/12 21/34/12
f 22/35/13 23/36/13 24/19/13
f 7/37/14 1/38/14 3/13/14 8/16/14
f 2/4/15 4/3/15 6/24/15 3/22/15
f 5/39/16 10/40/16 12/15/16 6/14/16
f 11/18/17 9/17/17 8/26/17 12/28/17
f 19/33/18 7/25/18 9/17/18 20/20/18
f 10/27/19 22/35/19 24/19/19 11/18/19
f 23/36/20 21/34/20 20/20/20 24/19/20
f 13/41/21 19/42/21 21/5/21 14/8/21
f 22/43/22 16/44/22 18/7/22 23/6/22
f 17/2/23 15/1/23 14/45/23 18/46/23
f 1/21/24 13/29/24 15/1/24 2/4/24
f 16/47/25 5/48/25 4/3/25 17/2/25
f 7/49/26 19/50/26 13/51/26 1/52/26
